<?xml version="1.0" encoding="utf-8"?>
<!-- Generator: Adobe Illustrator 16.0.0, SVG Export Plug-In . SVG Version: 6.00 Build 0)  -->
<!DOCTYPE svg PUBLIC "-//W3C//DTD SVG 1.1//EN" "http://www.w3.org/Graphics/SVG/1.1/DTD/svg11.dtd">
<svg version="1.1" id="Layer_1" xmlns="http://www.w3.org/2000/svg" xmlns:xlink="http://www.w3.org/1999/xlink" x="0px" y="0px"
	 width="781px" height="76px" viewBox="0 0 781 76" enable-background="new 0 0 781 76" xml:space="preserve">
<g>
	<g>
		<path fill="#D9FF39" d="M21.176,22.063H4.629v-8.63h41.565v8.63H29.806V72.18h-8.63V22.063z"/>
		<path fill="#D9FF39" d="M87.126,13.434v8.154H59.654v17.735h22.168v8.154H59.654v16.468h27.473v8.234H51.024V13.434H87.126z"/>
		<path fill="#D9FF39" d="M129.958,50.565V13.434h8.629V72.18l-34.915-35.707V72.18h-8.63V13.434L129.958,50.565z"/>
		<path fill="#D9FF39" d="M194.483,43.757v22.326c-2.534,2.112-5.384,3.656-8.551,4.632c-3.167,0.978-6.52,1.465-10.055,1.465
			c-4.065,0-7.878-0.765-11.44-2.296c-3.563-1.53-6.678-3.629-9.342-6.294c-2.666-2.665-4.764-5.78-6.294-9.343
			c-1.531-3.563-2.296-7.375-2.296-11.44c0-4.063,0.765-7.878,2.296-11.44c1.53-3.563,3.628-6.677,6.294-9.343
			c2.665-2.664,5.779-4.763,9.342-6.294c3.563-1.53,7.375-2.296,11.44-2.296c2.269,0,4.327,0.198,6.175,0.594
			c1.847,0.396,3.536,0.898,5.067,1.504c1.53,0.607,2.902,1.294,4.117,2.059c1.213,0.766,2.296,1.492,3.246,2.178l-4.275,8.472
			c-0.633-0.686-1.439-1.372-2.415-2.059c-0.977-0.686-2.072-1.293-3.286-1.821c-1.215-0.527-2.533-0.963-3.958-1.307
			c-1.425-0.343-2.877-0.515-4.354-0.515c-2.85,0-5.516,0.542-7.996,1.623c-2.482,1.083-4.646,2.548-6.492,4.395
			c-1.848,1.848-3.299,4.012-4.354,6.492c-1.057,2.481-1.583,5.12-1.583,7.917c0,2.851,0.527,5.517,1.583,7.996
			c1.055,2.482,2.506,4.646,4.354,6.492c1.847,1.849,4.01,3.3,6.492,4.354c2.48,1.057,5.146,1.584,7.996,1.584
			c1.583,0,3.193-0.224,4.83-0.673c1.635-0.448,2.956-1.042,3.958-1.781v-9.026H168.04l4.83-8.154H194.483z"/>
		<path fill="#D9FF39" d="M231.852,13.354c4.063,0,7.877,0.766,11.44,2.296c3.563,1.531,6.676,3.63,9.342,6.294
			c2.665,2.666,4.763,5.78,6.294,9.343c1.53,3.563,2.296,7.377,2.296,11.44c0,4.064-0.766,7.878-2.296,11.44
			c-1.531,3.563-3.629,6.678-6.294,9.343c-2.666,2.665-5.78,4.764-9.342,6.294c-3.563,1.531-7.377,2.296-11.44,2.296
			c-4.065,0-7.878-0.765-11.44-2.296c-3.563-1.53-6.678-3.629-9.342-6.294c-2.666-2.665-4.777-5.78-6.334-9.343
			c-1.557-3.563-2.335-7.376-2.335-11.44c0-4.063,0.778-7.878,2.335-11.44c1.557-3.563,3.668-6.677,6.334-9.343
			c2.665-2.664,5.78-4.763,9.342-6.294C223.974,14.12,227.787,13.354,231.852,13.354z M231.852,62.441
			c2.692,0,5.238-0.515,7.64-1.544c2.401-1.029,4.499-2.427,6.294-4.196c1.794-1.768,3.207-3.852,4.236-6.255
			c1.029-2.4,1.544-4.974,1.544-7.719c0-2.744-0.515-5.305-1.544-7.68s-2.442-4.46-4.236-6.255
			c-1.795-1.794-3.893-3.206-6.294-4.235c-2.402-1.029-4.948-1.544-7.64-1.544c-2.745,0-5.318,0.515-7.719,1.544
			c-2.402,1.029-4.5,2.441-6.294,4.235c-1.795,1.795-3.207,3.88-4.235,6.255c-1.029,2.375-1.544,4.936-1.544,7.68
			c0,2.745,0.515,5.318,1.544,7.719c1.029,2.403,2.44,4.487,4.235,6.255c1.794,1.77,3.892,3.167,6.294,4.196
			C226.534,61.927,229.107,62.441,231.852,62.441z"/>
		<path fill="#FFFFFF" d="M294.555,72.18l-9.105-19.951c-0.528,0.053-1.042,0.079-1.544,0.079c-0.502,0-0.963,0-1.385,0h-9.105
			V72.18h-8.629V13.434h8.55h9.105c1.055,0,2.282,0.039,3.681,0.119c1.398,0.079,2.823,0.29,4.275,0.633
			c1.451,0.344,2.876,0.91,4.275,1.702c1.398,0.792,2.652,1.9,3.761,3.325c1.108,1.426,1.992,3.26,2.652,5.503
			c0.659,2.244,0.99,4.976,0.99,8.194c0,2.587-0.212,4.843-0.634,6.77c-0.423,1.927-1.017,3.576-1.781,4.948
			c-0.766,1.373-1.637,2.521-2.613,3.443c-0.977,0.925-2.019,1.677-3.127,2.257l10.134,21.852H294.555z M279.117,43.678
			c1.583,0,3.232-0.026,4.948-0.079c1.714-0.053,3.258-0.396,4.631-1.029c1.372-0.634,2.506-1.688,3.404-3.167
			c0.897-1.478,1.346-3.643,1.346-6.492c0-2.851-0.449-5.014-1.346-6.492c-0.898-1.478-2.032-2.533-3.404-3.167
			c-1.373-0.634-2.903-0.989-4.592-1.069c-1.69-0.079-3.325-0.118-4.909-0.118h-5.78v21.614H279.117z"/>
		<path fill="#FFFFFF" d="M343.957,13.434v8.154h-27.473v17.735h22.168v8.154h-22.168v16.468h27.473v8.234h-36.102V13.434H343.957z"
			/>
		<path fill="#FFFFFF" d="M367.787,13.513c2.111,0,3.984,0.196,5.621,0.589c1.635,0.393,3.035,0.824,4.197,1.294
			c1.371,0.576,2.559,1.178,3.563,1.805l-4.434,7.555c-0.793-0.475-1.664-0.896-2.613-1.267c-0.791-0.316-1.729-0.619-2.811-0.91
			c-1.082-0.29-2.256-0.436-3.523-0.436c-1.373,0-2.533,0.237-3.482,0.713c-0.951,0.475-1.73,1.056-2.336,1.741
			c-0.607,0.687-1.057,1.438-1.346,2.257c-0.291,0.818-0.436,1.571-0.436,2.256c0,2.007,0.723,3.497,2.17,4.474
			c1.447,0.978,3.264,1.769,5.449,2.375c2.184,0.607,4.539,1.201,7.066,1.781c2.525,0.582,4.881,1.465,7.066,2.652
			c2.184,1.188,4,2.851,5.447,4.988s2.174,5.08,2.174,8.827c0,2.429-0.498,4.738-1.492,6.928c-0.994,2.191-2.42,4.104-4.275,5.74
			c-1.857,1.637-4.131,2.93-6.822,3.88c-2.693,0.95-5.754,1.425-9.184,1.425c-2.744,0-5.146-0.274-7.205-0.824
			c-2.059-0.549-3.879-1.216-5.463-2c-1.583-0.784-2.956-1.607-4.116-2.471c-1.161-0.863-2.19-1.582-3.088-2.158l4.513-7.59
			c3.113,2.481,6.018,4.17,8.709,5.067s4.908,1.346,6.65,1.346c1.584,0,3.154-0.198,4.711-0.594s2.969-0.976,4.236-1.742
			c1.266-0.764,2.281-1.728,3.047-2.89c0.766-1.16,1.148-2.506,1.148-4.037c0-1.689-0.424-3.061-1.266-4.117
			c-0.846-1.056-1.955-1.94-3.326-2.652c-1.373-0.713-2.943-1.293-4.711-1.742c-1.77-0.447-3.563-0.923-5.383-1.425
			c-1.822-0.501-3.617-1.095-5.385-1.781c-1.77-0.686-3.338-1.596-4.711-2.731c-1.373-1.135-2.48-2.56-3.324-4.275
			c-0.846-1.715-1.268-3.84-1.268-6.374c0-3.008,0.634-5.528,1.9-7.561c1.268-2.031,2.771-3.642,4.514-4.829
			c1.74-1.188,3.521-2.032,5.344-2.534C365.135,13.764,366.625,13.513,367.787,13.513z"/>
		<path fill="#FFFFFF" d="M408.165,22.063h-16.547v-8.63h41.564v8.63h-16.388V72.18h-8.63V22.063z"/>
		<path fill="#FFFFFF" d="M471.66,72.18l-9.104-19.951c-0.528,0.053-1.043,0.079-1.544,0.079c-0.502,0-0.964,0-1.386,0h-9.104V72.18
			h-8.63V13.434h8.551h9.104c1.056,0,2.283,0.039,3.682,0.119c1.398,0.079,2.823,0.29,4.275,0.633
			c1.451,0.344,2.876,0.91,4.275,1.702c1.397,0.792,2.652,1.9,3.761,3.325c1.108,1.426,1.991,3.26,2.652,5.503
			c0.659,2.244,0.989,4.976,0.989,8.194c0,2.587-0.211,4.843-0.633,6.77c-0.424,1.927-1.018,3.576-1.781,4.948
			c-0.767,1.373-1.637,2.521-2.613,3.443c-0.978,0.925-2.019,1.677-3.127,2.257l10.134,21.852H471.66z M456.222,43.678
			c1.584,0,3.232-0.026,4.948-0.079c1.715-0.053,3.259-0.396,4.632-1.029c1.372-0.634,2.507-1.688,3.404-3.167
			c0.897-1.478,1.346-3.643,1.346-6.492c0-2.851-0.448-5.014-1.346-6.492c-0.897-1.478-2.032-2.533-3.404-3.167
			c-1.373-0.634-2.903-0.989-4.592-1.069c-1.689-0.079-3.325-0.118-4.909-0.118h-5.779v21.614H456.222z"/>
		<path fill="#FFFFFF" d="M495.016,72.18h-8.63V13.434h8.63V72.18z"/>
		<path fill="#FFFFFF" d="M549.248,67.191c-2.587,1.532-4.869,2.666-6.849,3.405c-1.979,0.739-4.077,1.215-6.294,1.425
			c-4.382,0.475-8.524,0.014-12.43-1.386c-3.907-1.397-7.342-3.444-10.309-6.136c-2.967-2.692-5.314-5.898-7.046-9.619
			c-1.732-3.722-2.597-7.692-2.597-11.916c0-4.117,0.785-8.022,2.356-11.718c1.571-3.693,3.775-6.914,6.61-9.659
			c2.836-2.743,6.194-4.842,10.073-6.294c3.88-1.451,8.168-2.019,12.866-1.702c1.847,0.106,3.602,0.409,5.265,0.91
			c1.662,0.503,3.179,1.097,4.553,1.782l-3.801,7.601c-1.741-0.792-3.22-1.293-4.434-1.505c-1.215-0.21-2.587-0.316-4.117-0.316
			c-2.745,0-5.371,0.567-7.877,1.702c-2.508,1.136-4.711,2.652-6.611,4.553c-1.9,1.899-3.418,4.104-4.552,6.61
			c-1.136,2.508-1.703,5.134-1.703,7.878c0,2.798,0.581,5.45,1.742,7.957c1.16,2.508,2.704,4.711,4.632,6.61
			c1.926,1.9,4.129,3.418,6.61,4.553c2.48,1.136,5.067,1.702,7.759,1.702c1.002,0,1.94-0.039,2.811-0.118
			c0.871-0.08,1.742-0.238,2.613-0.476s1.768-0.566,2.691-0.989c0.923-0.422,1.966-0.977,3.128-1.663L549.248,67.191z"/>
		<path fill="#FFFFFF" d="M593.268,67.191c-2.587,1.532-4.869,2.666-6.849,3.405c-1.979,0.739-4.077,1.215-6.294,1.425
			c-4.382,0.475-8.524,0.014-12.43-1.386c-3.907-1.397-7.342-3.444-10.309-6.136c-2.967-2.692-5.314-5.898-7.046-9.619
			c-1.732-3.722-2.597-7.692-2.597-11.916c0-4.117,0.785-8.022,2.356-11.718c1.571-3.693,3.775-6.914,6.61-9.659
			c2.836-2.743,6.194-4.842,10.073-6.294c3.88-1.451,8.168-2.019,12.866-1.702c1.847,0.106,3.602,0.409,5.265,0.91
			c1.662,0.503,3.179,1.097,4.553,1.782l-3.801,7.601c-1.741-0.792-3.22-1.293-4.434-1.505c-1.215-0.21-2.587-0.316-4.117-0.316
			c-2.745,0-5.371,0.567-7.877,1.702c-2.508,1.136-4.711,2.652-6.611,4.553c-1.9,1.899-3.418,4.104-4.552,6.61
			c-1.136,2.508-1.703,5.134-1.703,7.878c0,2.798,0.581,5.45,1.742,7.957c1.16,2.508,2.704,4.711,4.632,6.61
			c1.926,1.9,4.129,3.418,6.61,4.553c2.48,1.136,5.067,1.702,7.759,1.702c1.002,0,1.94-0.039,2.811-0.118
			c0.871-0.08,1.742-0.238,2.613-0.476s1.768-0.566,2.691-0.989c0.923-0.422,1.966-0.977,3.128-1.663L593.268,67.191z"/>
		<path fill="#FFFFFF" d="M610.526,72.18h-8.63V13.434h8.63V72.18z"/>
		<path fill="#FFFFFF" d="M648.687,13.434c4.064,0,7.878,0.766,11.44,2.296c3.563,1.531,6.677,3.63,9.343,6.294
			c2.664,2.666,4.763,5.78,6.294,9.343c1.53,3.563,2.296,7.377,2.296,11.44c0,4.065-0.766,7.878-2.296,11.44
			c-1.531,3.563-3.63,6.678-6.294,9.343c-2.666,2.665-5.779,4.764-9.343,6.294c-3.563,1.531-7.376,2.296-11.44,2.296
			s-7.877-0.765-11.44-2.296c-3.563-1.53-6.677-3.629-9.342-6.294c-2.666-2.665-4.777-5.78-6.334-9.343
			c-1.558-3.563-2.335-7.375-2.335-11.44c0-4.063,0.777-7.878,2.335-11.44c1.557-3.563,3.668-6.677,6.334-9.343
			c2.665-2.664,5.779-4.763,9.342-6.294C640.81,14.199,644.622,13.434,648.687,13.434z M648.687,62.521
			c2.692,0,5.238-0.515,7.641-1.544c2.401-1.029,4.499-2.427,6.294-4.196c1.794-1.768,3.207-3.852,4.235-6.254
			c1.029-2.401,1.544-4.975,1.544-7.72c0-2.744-0.515-5.305-1.544-7.68c-1.028-2.375-2.441-4.46-4.235-6.255
			c-1.795-1.794-3.893-3.206-6.294-4.235c-2.402-1.029-4.948-1.544-7.641-1.544c-2.745,0-5.317,0.515-7.719,1.544
			c-2.402,1.029-4.501,2.441-6.294,4.235c-1.795,1.795-3.207,3.88-4.236,6.255s-1.544,4.936-1.544,7.68
			c0,2.745,0.515,5.318,1.544,7.72c1.029,2.402,2.441,4.486,4.236,6.254c1.793,1.77,3.892,3.167,6.294,4.196
			C643.369,62.006,645.941,62.521,648.687,62.521z M651.221,12.563h-5.463l2.454-8.867h5.384L651.221,12.563z"/>
		<path fill="#FFFFFF" d="M720.891,50.565V13.434h8.63V72.18l-34.915-35.707V72.18h-8.629V13.434L720.891,50.565z"/>
	</g>
	<g>
		<g>
			<path fill="#D9FF39" d="M776.961,27.455c0,13.567-12.912,10.359-13.651,18.767v9.633h-11.938v-7.149
				c-0.28-13.683,12.537-13.172,12.537-21.563c0-3.313-2.591-5.699-5.905-5.699c-3.109,0-5.802,2.904-5.802,7.979v2.903h-12.948
				v-4.869c0-9.841,7.767-16.37,18.75-16.37C769.085,11.085,776.961,17.51,776.961,27.455z M751.351,60.19h11.939v10.994h-11.939
				V60.19z"/>
		</g>
	</g>
</g>
</svg>
