<?xml version="1.0" encoding="utf-8"?>
<!-- Generator: Adobe Illustrator 16.0.0, SVG Export Plug-In . SVG Version: 6.00 Build 0)  -->
<!DOCTYPE svg PUBLIC "-//W3C//DTD SVG 1.1 Tiny//EN" "http://www.w3.org/Graphics/SVG/1.1/DTD/svg11-tiny.dtd">
<svg version="1.1" baseProfile="tiny" id="Layer_1" xmlns="http://www.w3.org/2000/svg" xmlns:xlink="http://www.w3.org/1999/xlink"
	 x="0px" y="0px" width="175.79px" height="40px" viewBox="0 0 175.79 40" xml:space="preserve">
<g>
	<g>
		<g>
			<g>
				<path fill="#3A3B3F" d="M68.716,17.743H57.944c-0.275,0-0.514,0.22-0.514,0.496v5.212c0,0.274,0.238,0.514,0.514,0.514h4.203
					v6.478c0,0-0.937,0.312-3.562,0.312c-3.064,0-7.377-1.101-7.377-10.479c0-9.377,4.479-10.607,8.682-10.607
					c3.651,0,5.211,0.642,6.221,0.936c0.312,0.11,0.605-0.202,0.605-0.477l1.192-5.047c0-0.129-0.036-0.294-0.184-0.385
					c-0.403-0.294-2.881-1.67-9.14-1.67c-7.193,0-14.571,3.047-14.571,17.619s8.442,16.756,15.582,16.756
					c5.891,0,9.47-2.497,9.47-2.497c0.146-0.091,0.165-0.294,0.165-0.385V18.238C69.231,17.963,69.01,17.743,68.716,17.743z"/>
			</g>
			<g>
				<path fill="#3A3B3F" d="M124.288,4.786c0-0.294-0.22-0.513-0.494-0.513h-6.076c-0.275,0-0.494,0.219-0.494,0.513v11.617h-9.471
					V4.786c0-0.294-0.22-0.513-0.496-0.513h-6.074c-0.275,0-0.494,0.219-0.494,0.513v31.455c0,0.276,0.219,0.497,0.494,0.497h6.074
					c0.276,0,0.496-0.221,0.496-0.497V22.789h9.471l-0.019,13.452c0,0.276,0.219,0.497,0.495,0.497h6.094
					c0.274,0,0.494-0.221,0.494-0.497V4.786z"/>
			</g>
			<g>
				<path fill="#3A3B3F" d="M80.187,8.915c0-2.166-1.762-3.928-3.927-3.928c-2.147,0-3.91,1.762-3.91,3.928
					c0,2.147,1.763,3.909,3.91,3.909C78.425,12.824,80.187,11.062,80.187,8.915z"/>
				<path fill="#3A3B3F" d="M79.747,29.599V15.081c0-0.275-0.221-0.496-0.495-0.496h-6.057c-0.275,0-0.532,0.276-0.532,0.551v20.81
					c0,0.606,0.386,0.791,0.881,0.791h5.45c0.606,0,0.753-0.294,0.753-0.809V29.599z"/>
			</g>
			<g>
				<path fill="#3A3B3F" d="M147.357,14.623h-6.02c-0.274,0-0.496,0.22-0.496,0.514v15.416c0,0-1.542,1.119-3.707,1.119
					c-2.183,0-2.753-0.99-2.753-3.083V15.137c0-0.294-0.22-0.514-0.494-0.514h-6.111c-0.276,0-0.515,0.22-0.515,0.514v14.462
					c0,6.259,3.523,7.782,8.368,7.782c3.982,0,7.176-2.167,7.176-2.167s0.147,1.138,0.221,1.285
					c0.073,0.129,0.256,0.275,0.438,0.275l3.893-0.02c0.274,0,0.513-0.238,0.513-0.515V15.137
					C147.87,14.843,147.631,14.623,147.357,14.623z"/>
			</g>
			<g>
				<path fill-rule="evenodd" fill="#3A3B3F" d="M161.452,31.635c-2.094-0.054-3.506-0.991-3.506-0.991v-9.965
					c0,0,1.395-0.844,3.101-0.991c2.185-0.202,4.276,0.44,4.276,5.579C165.323,30.664,164.37,31.728,161.452,31.635z
					 M163.819,13.925c-3.414,0-5.744,1.504-5.744,1.504V4.786c0-0.294-0.22-0.513-0.494-0.513h-6.094
					c-0.276,0-0.496,0.219-0.496,0.513v31.455c0,0.276,0.22,0.497,0.496,0.497h4.221c0.202,0,0.33-0.092,0.438-0.257
					c0.111-0.185,0.259-1.451,0.259-1.451s2.494,2.331,7.212,2.331c5.523,0,8.699-2.79,8.699-12.479
					C172.316,15.191,167.251,13.925,163.819,13.925z"/>
			</g>
			<g>
				<path fill="#3A3B3F" d="M97.201,14.568h-4.553L92.63,8.621c0-0.22-0.111-0.349-0.386-0.349h-6.203
					c-0.239,0-0.367,0.11-0.367,0.349v6.148l-3.321,0.807c-0.202,0.056-0.368,0.257-0.368,0.478v3.872
					c0,0.275,0.239,0.496,0.515,0.496h3.175v9.304c0,6.92,4.9,7.598,8.203,7.598c1.506,0,3.323-0.477,3.617-0.586
					c0.183-0.073,0.273-0.257,0.273-0.459l0.021-4.259c0-0.273-0.24-0.496-0.517-0.496c-0.255,0-0.936,0.111-1.631,0.111
					c-2.24,0-2.993-1.029-2.993-2.368l-0.018-8.845h4.57c0.275,0,0.494-0.22,0.494-0.496v-4.845
					C97.695,14.806,97.476,14.568,97.201,14.568z"/>
			</g>
		</g>
		<g>
			<path fill-rule="evenodd" fill="#3A3B3F" d="M21.533,2.565c-9.984,0-18.059,8.001-18.059,17.875
				c0,7.892,5.175,14.608,12.351,16.958c0.9,0.165,1.229-0.387,1.229-0.864l-0.018-3.32c-5.029,1.082-6.094-2.111-6.094-2.111
				c-0.825-2.056-2-2.605-2-2.605c-1.634-1.121,0.128-1.103,0.128-1.103c1.799,0.129,2.753,1.855,2.753,1.855
				c1.616,2.733,4.239,1.944,5.268,1.486c0.146-1.154,0.624-1.944,1.138-2.386c-4.001-0.459-8.222-2-8.222-8.846
				c0-1.945,0.697-3.542,1.854-4.79c-0.183-0.459-0.808-2.276,0.184-4.735c0,0,1.506-0.478,4.955,1.835
				c1.45-0.404,2.991-0.606,4.533-0.606c1.523,0,3.064,0.202,4.515,0.606c3.45-2.313,4.955-1.835,4.955-1.835
				c0.991,2.459,0.367,4.276,0.184,4.735c1.156,1.247,1.854,2.844,1.854,4.79c0,6.865-4.221,8.387-8.24,8.828
				c0.643,0.55,1.229,1.632,1.229,3.303c0,2.387-0.019,4.312-0.019,4.899c0,0.478,0.313,1.047,1.23,0.864
				c7.175-2.369,12.332-9.066,12.332-16.958C39.573,10.566,31.498,2.565,21.533,2.565z"/>
			<path fill-rule="evenodd" fill="#3A3B3F" d="M10.319,28.241c-0.054,0.072-0.184,0.109-0.312,0.036
				c-0.128-0.054-0.201-0.165-0.165-0.257c0.037-0.091,0.184-0.129,0.313-0.055C10.283,28.02,10.356,28.148,10.319,28.241z"/>
			<path fill-rule="evenodd" fill="#3A3B3F" d="M11.036,29.047c-0.074,0.075-0.238,0.037-0.368-0.092
				c-0.109-0.127-0.128-0.292-0.055-0.367c0.092-0.091,0.257-0.036,0.386,0.075C11.109,28.792,11.126,28.956,11.036,29.047z"/>
			<path fill-rule="evenodd" fill="#3A3B3F" d="M11.75,30.076c-0.109,0.072-0.293,0-0.403-0.165c-0.11-0.146-0.11-0.35,0-0.423
				s0.294,0,0.403,0.147C11.861,29.8,11.861,29.983,11.75,30.076z"/>
			<path fill-rule="evenodd" fill="#3A3B3F" d="M12.723,31.065c-0.091,0.111-0.312,0.075-0.458-0.071
				c-0.165-0.147-0.202-0.35-0.11-0.459c0.11-0.111,0.312-0.073,0.478,0.071C12.778,30.753,12.833,30.958,12.723,31.065z"/>
			<path fill-rule="evenodd" fill="#3A3B3F" d="M14.082,31.635c-0.055,0.146-0.257,0.202-0.459,0.146
				c-0.202-0.054-0.33-0.22-0.293-0.365c0.036-0.147,0.238-0.204,0.439-0.147C13.99,31.341,14.118,31.506,14.082,31.635z"/>
			<path fill-rule="evenodd" fill="#3A3B3F" d="M15.55,31.747c0,0.146-0.165,0.273-0.386,0.273s-0.386-0.109-0.386-0.256
				c0-0.147,0.165-0.276,0.386-0.276C15.367,31.488,15.55,31.599,15.55,31.747z"/>
			<path fill-rule="evenodd" fill="#3A3B3F" d="M16.926,31.506c0.018,0.146-0.129,0.294-0.331,0.35
				c-0.22,0.037-0.402-0.056-0.439-0.203c-0.019-0.146,0.128-0.294,0.33-0.33C16.706,31.288,16.908,31.378,16.926,31.506z"/>
		</g>
	</g>
</g>
</svg>
