<?xml version="1.0" encoding="utf-8"?>
<!-- Generator: Adobe Illustrator 16.0.0, SVG Export Plug-In . SVG Version: 6.00 Build 0)  -->
<!DOCTYPE svg PUBLIC "-//W3C//DTD SVG 1.1//EN" "http://www.w3.org/Graphics/SVG/1.1/DTD/svg11.dtd">
<svg version="1.1" id="Layer_1" xmlns="http://www.w3.org/2000/svg" xmlns:xlink="http://www.w3.org/1999/xlink" x="0px" y="0px"
	 width="253.709px" height="30.081px" viewBox="0 0 253.709 30.081" enable-background="new 0 0 253.709 30.081"
	 xml:space="preserve">
<g>
	<g>
		<g>
			<g>
				<path fill="#FFFFFF" d="M14.308,21.104c0-1.56-1.846-1.91-4.073-2.037c-4.838-0.35-8.021-2.005-8.083-6.842
					c-0.191-9.612,17.121-9.612,16.994,0c-2.006,0-3.47,0-5.41,0c0-2.96-5.983-2.706-6.174-0.063
					c-0.128,1.687,1.526,2.037,3.531,2.259c4.424,0.477,8.753,1.146,8.753,6.715c0,9.356-18.141,9.516-18.014-0.286
					c1.91,0,3.564,0,5.506,0C7.338,23.681,14.308,23.714,14.308,21.104z"/>
			</g>
			<g>
				<path fill="#FFFFFF" d="M36.87,24.859h-8.784l-1.304,2.801h-5.57v-0.827L31.236,5.096h2.451l10.057,21.737v0.827h-5.569
					L36.87,24.859z M32.446,14.103l-2.482,5.855h5.028L32.446,14.103z"/>
			</g>
			<g>
				<path fill="#FFFFFF" d="M52.558,16.712V27.66c-1.973,0-3.946,0-5.888,0V5.286h2.069l11.266,11.012V5.382
					c1.941,0,3.883,0,5.824,0v22.309h-2.037L52.558,16.712z"/>
			</g>
			<g>
				<path fill="#FFFFFF" d="M69.296,10.474c0-1.718,0-3.405,0-5.092h16.549c0,1.687,0,3.374,0,5.092h-5.442V27.66
					c-1.877,0-3.755,0-5.632,0V10.474H69.296z"/>
			</g>
			<g>
				<path fill="#FFFFFF" d="M99.307,22.663c0,1.877,0,3.055,0,4.997c-3.788,0-7.512,0-11.298,0c0-1.941,0-3.119,0-4.997h2.832
					V10.347h-2.61c0-1.909,0-3.087,0-4.964c3.628,0,7.225,0,10.853,0c0,1.877,0,3.055,0,4.964h-2.609v12.316H99.307z"/>
			</g>
			<g>
				<path fill="#FFFFFF" d="M115.885,24.859h-8.784l-1.304,2.801h-5.569v-0.827l10.024-21.737h2.45l10.058,21.737v0.827h-5.569
					L115.885,24.859z M111.462,14.103l-2.482,5.855h5.027L111.462,14.103z"/>
			</g>
			<g>
				<path fill="#FFFFFF" d="M135.743,5.096c4.486,0.032,9.165,2.354,10.247,7.893h-5.602c-0.923-1.91-2.387-2.673-4.646-2.673
					c-3.597,0-5.538,2.8-5.538,6.206c0,3.691,2.164,6.11,5.538,6.11c2.291,0,3.755-0.605,4.772-2.737h-4.741v-4.934h10.534
					c0.128,2.228,0.128,4.361-0.637,6.524c-1.592,4.646-5.824,6.429-9.929,6.429c-5.666,0-11.395-3.788-11.426-11.393
					C124.349,8.915,130.077,5.096,135.743,5.096z"/>
			</g>
			<g>
				<path fill="#FFFFFF" d="M149.457,16.553c0-15.403,22.85-15.403,22.85,0C172.307,31.987,149.457,31.987,149.457,16.553z
					 M166.483,16.553c0-8.02-11.171-8.02-11.171,0C155.313,24.636,166.483,24.636,166.483,16.553z"/>
			</g>
			<g>
				<path fill="#FFFFFF" d="M199.801,22.536h8.083c0,1.91,0,3.215,0,5.124c-4.582,0-9.293,0-13.812,0V5.382c1.909,0,3.787,0,5.729,0
					C199.801,16.903,199.801,13.052,199.801,22.536z M205.72,24.954h-8.593c0-17.216,0-2.737,0-17.408h-0.35v17.695h8.942V24.954z"
					/>
			</g>
			<g>
				<path fill="#FFFFFF" d="M224.654,24.859h-8.784l-1.305,2.801h-5.568v-0.827l10.024-21.737h2.45l10.057,21.737v0.827h-5.569
					L224.654,24.859z M220.326,8.342h-0.19l-7.926,17.154h0.414l1.497-3.151h12.315l1.464,3.151h0.414L220.326,8.342z
					 M214.247,21.995h12.063l-6.047-12.953h-0.031L214.247,21.995z M222.587,19.736h-4.648l2.293-5.125L222.587,19.736z"/>
			</g>
			<g>
				<path fill="#FFFFFF" d="M249.158,16.076c1.814,0.923,2.674,2.577,2.674,4.55c-0.032,3.883-2.388,7.034-6.938,7.034h-10.438
					V5.382h9.516c3.851,0,6.938,2.992,6.938,6.842C250.908,13.562,250.241,15.185,249.158,16.076z M237.128,7.769v17.536h7.701
					c2.419,0,4.36-2.291,4.36-4.679c0-2.1-1.622-4.073-3.755-4.168V16.33c1.623-0.381,2.833-2.45,2.833-4.105
					c0-2.419-1.941-4.456-4.329-4.456H237.128z M237.446,8.056v8.306h6.492c2.291,0,4.01-1.877,4.01-4.137
					c0-2.228-1.781-4.169-4.01-4.169H237.446z M237.446,16.648v8.338h7.383c2.197,0,4.043-2.1,4.043-4.36
					c0-2.26-1.846-3.978-4.043-3.978H237.446z M243.525,10.474c2.291,0,2.291,3.533,0.031,3.533h-3.596v-3.533H243.525z
					 M244.512,22.6h-4.551v-3.66h4.52C246.771,18.939,246.803,22.6,244.512,22.6z"/>
			</g>
		</g>
		<g opacity="0.59">
			<g>
				<path fill="#FFFFFF" stroke="#010101" stroke-width="7.782" stroke-miterlimit="10" d="M178.939,22.994"/>
			</g>
		</g>
		<g>
			<g>
				<path fill="#FFFFFF" stroke="#FFFFFF" stroke-width="7.782" stroke-miterlimit="10" d="M178.65,22.704"/>
			</g>
		</g>
		<g opacity="0.59">
			<g>
				<path fill="#FFFFFF" stroke="#010101" stroke-width="7.782" stroke-miterlimit="10" d="M187.804,23.025"/>
			</g>
		</g>
		<g>
			<g>
				<path fill="#FFFFFF" stroke="#FFFFFF" stroke-width="7.782" stroke-miterlimit="10" d="M187.514,22.735"/>
			</g>
		</g>
		<g>
			<polygon fill="#FFFFFF" points="188.294,25.856 188.304,25.854 187.749,25.854 			"/>
			<path fill="#FFFFFF" d="M188.294,23.916l-11.057-0.006c-0.437-0.001-0.788,0.437-0.786,0.975c0,0.532,0.352,0.964,0.784,0.969
				h1.184c0.105,0.989,0.539,1.917,1.254,2.625c0.829,0.828,1.93,1.284,3.098,1.284l0,0c1.17,0,2.269-0.457,3.096-1.284
				c0.712-0.713,1.145-1.639,1.251-2.625h1.187c0.43-0.011,0.777-0.443,0.782-0.969C189.083,24.345,188.729,23.91,188.294,23.916z
				 M184.27,26.882c-0.401,0.402-0.934,0.623-1.499,0.623l0,0c-0.566,0-1.101-0.222-1.505-0.628
				c-0.189-0.187-0.338-0.405-0.442-0.643h3.889C184.607,26.473,184.458,26.693,184.27,26.882z"/>
		</g>
		<g>
			<path fill="#FFFFFF" d="M192.14,10.725c0-5.044-4.104-9.147-9.148-9.147s-9.147,4.104-9.147,9.147c0,2.905,1.363,5.6,3.677,7.327
				v2.943l-0.29,0c-0.438-0.002-0.788,0.437-0.787,0.974c0,0.532,0.353,0.965,0.785,0.97h11.068c0.43-0.012,0.777-0.443,0.781-0.97
				c-0.001-0.379-0.18-0.705-0.437-0.863v-3.188C190.843,16.187,192.14,13.542,192.14,10.725z M183.45,20.998l-1.125,0l0.573-1.346
				L183.45,20.998z M180.966,12.084l-0.073,0.03l0.185-1.114l0.688,2.462l0.498-2.267l0.375,1.439l0.749-4.352l0.623,3.963
				l0.748-1.586l0.343,1.465l-0.144-0.062l-2.04,4.785L180.966,12.084z M186.876,16.416l-0.49,0.336V21l-1.768-0.001l-1.124-2.744
				l2.344-5.499l1.314-0.003l-0.003-0.563l-1.502,0.004l-0.809-3.024l-0.557,1.181l-0.868-5.53l-0.889,5.149l-0.309-1.188
				l-0.517,2.356l-0.626-2.241l-0.688,3.143l-1.209,0.003l0.002,0.563l0.832-0.002l2.313,5.644l-1.172,2.75l-1.373,0v-4.148
				l-0.516-0.333c-1.98-1.279-3.162-3.443-3.162-5.789c0-3.799,3.092-6.891,6.891-6.891c3.8,0,6.892,3.091,6.892,6.891
				C189.883,13,188.759,15.126,186.876,16.416z"/>
			<polygon fill="#FFFFFF" points="188.287,22.94 188.297,22.938 187.742,22.939 			"/>
		</g>
	</g>
</g>
</svg>
